<svg id="Layer_1" enable-background="new 0 0 512 512" height="512" viewBox="0 0 512 512" width="512" xmlns="http://www.w3.org/2000/svg"><g><path d="m483.5 144.18c0 32.55-18.62 62.43-49.73 85.91v224.71c0 27.45-22.26 49.7-49.72 49.7h-256.1c-27.46 0-49.72-22.25-49.72-49.7v-224.71c-31.11-23.48-49.73-53.36-49.73-85.91 0-72.41 95.63-131.67 212.5-136.37 4.96-.21 9.97-.31 15-.31 123.58 0 227.5 61.19 227.5 136.68z" fill="#f79e60"/><path d="m483.5 144.18c0 32.55-18.62 62.43-49.73 85.91v224.71c0 27.45-22.26 49.7-49.72 49.7h-256.1c-27.46 0-49.72-22.25-49.72-49.7v-30c0 27.45 22.26 49.7 49.72 49.7h226.1c27.46 0 49.72-22.25 49.72-49.7v-214.71c31.11-23.48 49.73-33.36 49.73-65.91 0-72.41-95.63-131.67-212.5-136.37 4.96-.21 9.97-.31 15-.31 123.58 0 227.5 61.19 227.5 136.68z" fill="#d77d41"/><path d="m400.71 73.29c-38.09-22.75-90.84-35.79-144.71-35.79-5.01 0-10.02.11-15 .34-48.56 2.17-95.16 14.82-129.71 35.45-33.55 20.03-52.79 45.86-52.79 70.88 0 15.26 6.56 38.39 37.8 61.98 7.51 5.67 11.93 14.53 11.93 23.94v224.71c0 10.86 8.85 19.7 19.72 19.7h256.1c10.87 0 19.72-8.84 19.72-19.7v-224.71c0-9.41 4.42-18.27 11.93-23.94 31.24-23.59 37.8-46.72 37.8-61.98 0-25.02-19.24-50.85-52.79-70.88z" fill="#ffe8c8"/><path d="m400.71 73.29c-38.09-22.75-90.84-35.79-144.71-35.79-5.01 0-10.02.11-15 .34 48.56 2.17 95.16 14.82 129.71 35.45 33.55 20.03 52.79 45.86 52.79 70.88 0 15.26-6.56 38.39-37.8 61.98-7.51 5.67-11.93 14.53-11.93 23.94v194.71c0 10.86-8.85 19.7-19.72 19.7h-226.1c-10.87 0-19.72-8.84-19.72-19.7v30c0 10.86 8.85 19.7 19.72 19.7h256.1c10.87 0 19.72-8.84 19.72-19.7v-224.71c0-9.41 4.42-18.27 11.93-23.94 31.24-23.59 37.8-46.72 37.8-61.98 0-25.02-19.24-50.85-52.79-70.88z" fill="#fdd9b4"/></g><g><path d="m419.938 41.092c-44.383-26.498-102.605-41.092-163.938-41.092s-119.555 14.594-163.938 41.092c-45.825 27.359-71.062 63.969-71.062 103.083 0 32.609 17.624 64.308 49.727 89.605v221.02c0 31.54 25.672 57.2 57.227 57.2h179.221c4.142 0 7.5-3.357 7.5-7.5s-3.358-7.5-7.5-7.5h-179.221c-23.284 0-42.227-18.931-42.227-42.2v-224.706c0-2.353-1.104-4.568-2.981-5.985-30.581-23.089-46.746-50.73-46.746-79.934 0-33.624 22.641-65.659 63.751-90.203 42.093-25.131 97.583-38.972 156.249-38.972s114.156 13.841 156.249 38.972c41.11 24.544 63.751 56.579 63.751 90.203 0 29.204-16.165 56.845-46.746 79.934-1.877 1.417-2.981 3.633-2.981 5.985v224.706c0 23.27-18.943 42.2-42.227 42.2h-42.436c-4.142 0-7.5 3.357-7.5 7.5s3.358 7.5 7.5 7.5h42.437c31.555 0 57.227-25.66 57.227-57.2v-221.02c32.102-25.298 49.726-56.996 49.726-89.605 0-39.114-25.237-75.724-71.062-103.083z"/><path d="m371.688 50.86c-34.688-13.646-74.692-20.86-115.688-20.86-55.187 0-109.334 13.432-148.56 36.851-35.868 21.415-56.44 49.598-56.44 77.324 0 16.957 7.076 42.512 40.784 67.963 5.6 4.227 8.942 10.939 8.942 17.956v125.906c0 4.143 3.358 7.5 7.5 7.5s7.5-3.357 7.5-7.5v-125.906c0-11.694-5.572-22.883-14.904-29.928-28.78-21.73-34.822-42.442-34.822-55.991 0-22.314 17.907-45.804 49.13-64.445 36.968-22.072 88.313-34.73 140.87-34.73 38.576 0 77.711 7.038 110.197 19.819 3.854 1.517 8.208-.378 9.725-4.233 1.516-3.855-.379-8.209-4.234-9.726z"/><path d="m127.954 482h256.093c15.013 0 27.227-12.202 27.227-27.2v-224.706c0-7.017 3.343-13.729 8.942-17.957 33.708-25.45 40.784-51.005 40.784-67.962 0-27.726-20.572-55.909-56.44-77.324-3.556-2.125-8.161-.961-10.284 2.595-2.124 3.557-.962 8.161 2.595 10.284 31.222 18.641 49.129 42.13 49.129 64.445 0 13.549-6.042 34.261-34.822 55.991-9.333 7.045-14.904 18.233-14.904 29.928v224.706c0 6.728-5.485 12.2-12.227 12.2h-256.093c-6.742 0-12.227-5.473-12.227-12.2v-63.969c0-4.143-3.358-7.5-7.5-7.5s-7.5 3.357-7.5 7.5v63.969c0 14.998 12.213 27.2 27.227 27.2z"/><path d="m361.098 222.547c-2.929-2.928-7.678-2.928-10.606 0l-36.718 36.718c-2.929 2.93-2.929 7.678 0 10.607 1.464 1.464 3.384 2.196 5.303 2.196s3.839-.732 5.303-2.196l36.718-36.718c2.929-2.929 2.929-7.677 0-10.607z"/><path d="m150.902 432.744c1.464 1.464 3.384 2.196 5.303 2.196s3.839-.732 5.303-2.196l138.124-138.124c2.929-2.93 2.929-7.678 0-10.607-2.929-2.928-7.678-2.928-10.606 0l-138.124 138.124c-2.929 2.929-2.929 7.677 0 10.607z"/><path d="m152.884 376.558c1.464 1.464 3.384 2.196 5.303 2.196s3.839-.732 5.303-2.196l141.421-141.421c2.929-2.93 2.929-7.678 0-10.607-2.929-2.928-7.678-2.928-10.606 0l-141.421 141.42c-2.929 2.93-2.929 7.678 0 10.608z"/><path d="m159.955 312.918c1.464 1.464 3.384 2.196 5.303 2.196s3.839-.732 5.303-2.196l70.71-70.71c2.929-2.93 2.929-7.678 0-10.607-2.929-2.927-7.678-2.929-10.606 0l-70.71 70.71c-2.929 2.929-2.929 7.677 0 10.607z"/><path d="m359.116 278.733c-2.928-2.927-7.677-2.929-10.606 0l-141.422 141.421c-2.929 2.93-2.929 7.678 0 10.607 1.464 1.464 3.384 2.196 5.303 2.196s3.839-.732 5.303-2.196l141.421-141.421c2.93-2.929 2.93-7.677.001-10.607z"/><path d="m341.438 342.373-70.71 70.711c-2.929 2.93-2.929 7.678 0 10.607 1.464 1.464 3.384 2.196 5.303 2.196s3.839-.732 5.303-2.196l70.71-70.711c2.929-2.93 2.929-7.678 0-10.607-2.928-2.928-7.677-2.928-10.606 0z"/><circle cx="191.57" cy="169.573" r="7.504"/><circle cx="128.406" cy="148.58" r="7.504"/><circle cx="157.406" cy="106.58" r="7.504"/><circle cx="334.036" cy="121.02" r="7.504"/><circle cx="378.116" cy="151.319" r="7.504"/></g></svg>