<svg width="307" height="715" viewBox="0 0 307 715" fill="none" xmlns="http://www.w3.org/2000/svg">
<g clip-path="url(#clip0_0_1)">
<path d="M87.7143 -124.454V658.874H216.849V-124.454H87.7143Z" stroke="#A2724E" stroke-width="3"/>
<path d="M0.637588 362.21C0.285459 355.482 5.44684 349.74 12.1659 349.389L287.113 334.957C293.833 334.603 299.566 339.774 299.917 346.502L304.381 431.794C304.732 438.524 299.571 444.264 292.851 444.618L17.9041 459.049C11.1851 459.401 5.45281 454.232 5.10069 447.502L0.637588 362.21Z" fill="#482307"/>
<path d="M55.923 489.141C56.1668 482.75 61.545 477.765 67.9351 478.009L236.863 484.457C243.253 484.703 248.237 490.082 247.991 496.473L245.078 572.859C244.835 579.252 239.455 584.235 233.066 583.991L64.1375 577.543C57.7473 577.299 52.7647 571.918 53.0086 565.527L55.923 489.141Z" fill="#E15549"/>
<path d="M11.0018 621.234C10.8914 614.885 15.927 609.647 22.2491 609.536L280.953 605.002C287.275 604.891 292.489 609.948 292.599 616.297L293.998 696.768C294.11 703.117 289.073 708.353 282.751 708.464L24.0474 712.998C17.7253 713.109 12.5108 708.052 12.4005 701.703L11.0018 621.234Z" fill="#482307"/>
<path d="M43.165 388.069C47.2982 387.857 50.5863 389.077 53.0292 391.729C55.5148 394.378 56.8788 398.068 57.1212 402.798L58.1924 423.698L44.067 424.422L43.0875 405.311C43.0001 403.607 42.4626 402.289 41.4749 401.357C40.5277 400.38 39.2871 399.931 37.7531 400.009C36.1765 400.09 34.967 400.665 34.1246 401.733C33.28 402.759 32.9014 404.125 32.9887 405.829L33.9682 424.94L19.7788 425.667L17.9312 389.618L32.1206 388.891L32.4023 394.388C33.4229 392.627 34.8219 391.167 36.5996 390.007C38.4199 388.846 40.6083 388.2 43.165 388.069ZM75.4498 386.222C77.7934 386.102 79.8425 386.488 81.5971 387.381C83.3496 388.231 84.7159 389.464 85.6959 391.08L85.4436 386.158L99.5691 385.434L101.384 420.844C101.556 424.21 101.096 427.31 100.002 430.143C98.9083 432.976 97.0192 435.294 94.3347 437.098C91.6928 438.899 88.22 439.911 83.9163 440.131C78.1212 440.428 73.4494 439.3 69.9007 436.748C66.3969 434.236 64.2916 430.67 63.5848 426.049L77.5185 425.335C77.9981 427.19 79.5802 428.049 82.2646 427.912C83.9265 427.826 85.2043 427.334 86.098 426.433C86.9918 425.533 87.3786 423.911 87.2585 421.568L87.039 417.285C86.2293 418.993 84.9974 420.381 83.3432 421.448C81.6868 422.473 79.6868 423.045 77.3432 423.165C74.5309 423.309 71.9585 422.715 69.6258 421.382C67.291 420.006 65.3922 417.968 63.9293 415.266C62.5068 412.519 61.6984 409.249 61.5041 405.457C61.3097 401.665 61.7807 398.351 62.917 395.516C64.0938 392.635 65.7743 390.413 67.9584 388.849C70.1403 387.242 72.6375 386.366 75.4498 386.222ZM86.3674 404.183C86.2691 402.265 85.7027 400.799 84.668 399.784C83.6334 398.769 82.3491 398.3 80.8151 398.379C79.2811 398.458 78.0514 399.055 77.1259 400.17C76.2005 401.286 75.7869 402.802 75.8852 404.72C75.9835 406.637 76.5499 408.104 77.5846 409.119C78.6192 410.134 79.9035 410.602 81.4375 410.523C82.9715 410.445 84.2012 409.847 85.1267 408.732C86.0521 407.616 86.4657 406.1 86.3674 404.183ZM131.437 419.944L124.949 412.138L120.827 420.488L105.232 421.287L116.339 401.685L102.745 385.271L118.596 384.459L125.087 392.329L129.27 383.912L144.866 383.113L133.352 402.287L147.288 419.132L131.437 419.944ZM163.076 387.114C163.886 385.406 165.098 384.041 166.711 383.018C168.366 381.951 170.365 381.357 172.708 381.237C175.52 381.093 178.094 381.709 180.429 383.084C182.761 384.417 184.639 386.457 186.061 389.204C187.524 391.906 188.353 395.153 188.547 398.945C188.742 402.738 188.25 406.074 187.074 408.954C185.937 411.789 184.278 414.01 182.096 415.618C179.912 417.182 177.414 418.036 174.602 418.18C172.258 418.301 170.21 417.936 168.457 417.086C166.745 416.191 165.399 414.935 164.419 413.319L165.556 435.498L151.367 436.225L148.635 382.919L162.824 382.192L163.076 387.114ZM174.166 399.683C174.068 397.765 173.501 396.299 172.467 395.284C171.432 394.269 170.148 393.801 168.614 393.879C167.08 393.958 165.85 394.555 164.925 395.67C163.999 396.786 163.586 398.302 163.684 400.22C163.782 402.137 164.349 403.604 165.383 404.619C166.418 405.634 167.702 406.102 169.236 406.023C170.77 405.945 172 405.348 172.925 404.232C173.851 403.117 174.264 401.6 174.166 399.683ZM227.883 396.609C227.933 397.589 227.918 398.53 227.836 399.431L205.018 400.601C205.39 403.7 206.769 405.189 209.156 405.067C210.69 404.988 211.761 404.228 212.371 402.787L227.391 402.017C227.011 404.6 226.043 406.957 224.486 409.087C222.969 411.173 220.984 412.877 218.531 414.199C216.119 415.476 213.421 416.191 210.439 416.344C206.859 416.527 203.625 415.945 200.736 414.598C197.89 413.249 195.608 411.229 193.889 408.541C192.211 405.807 191.276 402.565 191.084 398.815C190.892 395.066 191.492 391.767 192.884 388.918C194.316 386.025 196.379 383.762 199.072 382.129C201.808 380.493 204.966 379.584 208.545 379.4C212.124 379.217 215.337 379.8 218.183 381.149C221.07 382.454 223.35 384.43 225.024 387.079C226.74 389.725 227.693 392.902 227.883 396.609ZM213.329 393.958C213.267 392.765 212.838 391.89 212.04 391.333C211.241 390.733 210.266 390.463 209.115 390.522C206.601 390.65 205.193 391.94 204.892 394.391L213.329 393.958ZM245.994 384.594C247.335 382.432 249.018 380.68 251.043 379.337C253.065 377.951 255.206 377.201 257.464 377.085L258.241 392.233L254.214 392.44C251.529 392.577 249.572 393.148 248.342 394.151C247.154 395.151 246.621 396.845 246.744 399.231L247.5 413.996L233.311 414.723L231.463 378.674L245.653 377.947L245.994 384.594ZM284.962 399.964L285.581 412.044L280.212 412.319C270.327 412.826 265.132 408.157 264.627 398.314L264.142 388.855L259.668 389.084L259.062 377.26L263.536 377.03L263.091 368.338L277.28 367.61L277.726 376.303L283.606 376.002L284.212 387.826L278.332 388.128L278.83 397.843C278.873 398.695 279.097 399.303 279.5 399.667C279.946 400.029 280.637 400.185 281.575 400.137L284.962 399.964Z" fill="white"/>
<path d="M129.931 508.47L128.122 553.745L113.925 553.178L114.63 535.528L101.137 534.989L100.432 552.639L86.2354 552.072L88.0443 506.796L102.241 507.363L101.589 523.67L115.083 524.209L115.734 507.902L129.931 508.47ZM156.554 555.33C152.291 555.159 148.408 554.001 144.907 551.854C141.449 549.709 138.746 546.825 136.798 543.203C134.851 539.581 133.965 535.554 134.143 531.12C134.32 526.686 135.523 522.742 137.754 519.286C139.984 515.831 142.908 513.194 146.525 511.374C150.186 509.514 154.148 508.668 158.411 508.839C162.675 509.009 166.535 510.167 169.994 512.312C173.454 514.414 176.137 517.276 178.042 520.896C179.989 524.518 180.875 528.546 180.697 532.98C180.52 537.414 179.316 541.358 177.086 544.813C174.898 548.27 171.974 550.928 168.313 552.789C164.694 554.651 160.775 555.498 156.554 555.33ZM157.083 542.092C159.897 542.205 162.107 541.396 163.713 539.667C165.321 537.895 166.186 535.474 166.309 532.405C166.433 529.293 165.764 526.811 164.301 524.959C162.839 523.064 160.701 522.061 157.888 521.948C155.031 521.834 152.799 522.663 151.191 524.435C149.585 526.164 148.719 528.585 148.595 531.697C148.472 534.767 149.142 537.249 150.603 539.143C152.067 540.995 154.226 541.978 157.083 542.092ZM222.271 512.159L221.822 523.414L209.799 522.934L208.44 556.954L194.243 556.387L195.602 522.366L183.708 521.891L184.158 510.636L222.271 512.159Z" fill="white"/>
<path d="M81.161 636.471L81.3352 647.734L69.3046 647.92L69.831 681.964L55.6247 682.183L55.0983 648.139L43.1957 648.323L43.0216 637.061L81.161 636.471ZM107.799 681.825C103.533 681.891 99.5924 680.949 95.9778 678.999C92.4059 677.049 89.5473 674.319 87.4022 670.811C85.257 667.302 84.1501 663.329 84.0815 658.893C84.0129 654.456 84.9965 650.451 87.0321 646.878C89.0678 643.304 91.8409 640.509 95.3515 638.492C98.904 636.431 102.813 635.368 107.08 635.302C111.346 635.236 115.265 636.179 118.837 638.129C122.408 640.037 125.245 642.745 127.347 646.254C129.492 649.763 130.599 653.736 130.668 658.172C130.737 662.609 129.753 666.614 127.717 670.187C125.724 673.76 122.952 676.577 119.399 678.637C115.889 680.697 112.022 681.759 107.799 681.825ZM107.594 668.578C110.41 668.535 112.572 667.605 114.08 665.79C115.587 663.932 116.317 661.467 116.27 658.395C116.222 655.281 115.416 652.84 113.852 651.071C112.288 649.261 110.098 648.377 107.282 648.421C104.424 648.465 102.241 649.416 100.734 651.274C99.2256 653.09 98.4956 655.555 98.5438 658.669C98.5913 661.741 99.3971 664.182 100.961 665.993C102.525 667.761 104.736 668.623 107.594 668.578ZM165.093 673.642L149.991 673.876L147.857 680.757L132.946 680.988L148.82 635.425L165.202 635.172L182.413 680.223L167.438 680.455L165.093 673.642ZM161.472 663.009L157.181 650.466L153.281 663.135L161.472 663.009ZM203.373 680.347C197.955 680.431 193.456 679.242 189.876 676.779C186.338 674.274 184.382 670.57 184.008 665.669L199.11 665.435C199.363 668.034 200.535 669.318 202.626 669.285C203.394 669.273 204.031 669.093 204.538 668.744C205.086 668.351 205.355 667.771 205.343 667.003C205.326 665.936 204.737 665.092 203.576 664.47C202.413 663.805 200.609 663.065 198.165 662.249C195.248 661.27 192.822 660.305 190.887 659.354C188.995 658.401 187.351 656.997 185.957 655.141C184.563 653.285 183.864 650.885 183.862 647.941C183.816 644.997 184.524 642.49 185.986 640.419C187.489 638.305 189.534 636.694 192.12 635.588C194.748 634.48 197.705 633.901 200.99 633.85C206.536 633.765 210.95 634.976 214.232 637.486C217.556 639.995 219.34 643.573 219.582 648.221L204.288 648.457C204.226 647.178 203.891 646.266 203.286 645.72C202.68 645.175 201.95 644.909 201.097 644.922C200.5 644.931 200.012 645.152 199.635 645.585C199.257 645.975 199.074 646.532 199.085 647.257C199.101 648.281 199.669 649.126 200.788 649.791C201.95 650.413 203.775 651.175 206.264 652.075C209.139 653.097 211.501 654.085 213.351 655.038C215.243 655.99 216.885 657.33 218.278 659.058C219.67 660.786 220.386 662.973 220.427 665.618C220.47 668.391 219.826 670.897 218.495 673.136C217.164 675.333 215.206 677.07 212.623 678.348C210.04 679.625 206.957 680.292 203.373 680.347ZM260.515 633.698L260.689 644.961L248.658 645.147L249.185 679.191L234.978 679.41L234.452 645.366L222.549 645.55L222.375 634.288L260.515 633.698Z" fill="white"/>
</g>
<defs>
<clipPath id="clip0_0_1">
<rect width="307" height="715" fill="white"/>
</clipPath>
</defs>
</svg>
