<svg width="506" height="216" viewBox="0 0 506 216" fill="none" xmlns="http://www.w3.org/2000/svg">
<g clip-path="url(#clip0)">
<path d="M4.36547 37.5003C3.52739 25.5092 12.5639 15.1088 24.5491 14.2703L162.174 4.64181C174.159 3.80331 184.554 12.8443 185.393 24.8353L195.883 174.925C196.721 186.916 187.684 197.316 175.699 198.155L38.0741 207.783C26.0889 208.621 15.6936 199.581 14.8556 187.59L4.36547 37.5003Z" fill="#482307"/>
<path d="M167.394 25.3435C168.232 13.3525 178.627 4.31149 190.613 5.14998L334.968 15.2493C346.953 16.0878 355.99 26.4882 355.152 38.4793L344.662 188.569C343.824 200.559 333.428 209.6 321.443 208.762L177.088 198.663C165.102 197.824 156.066 187.424 156.904 175.433L167.394 25.3435Z" fill="#E15549"/>
<path d="M318.808 37.3429C317.97 25.3519 327.006 14.9514 338.991 14.1129L469.887 4.95534C481.871 4.11685 492.267 13.1578 493.105 25.1488L503.595 175.238C504.433 187.229 495.396 197.63 483.412 198.468L352.516 207.626C340.531 208.464 330.136 199.423 329.298 187.433L318.808 37.3429Z" fill="#482307"/>
<path d="M111.862 52.8488C123.471 52.001 132.791 55.2308 139.822 62.5381C146.973 69.8366 151.033 80.1282 152.003 93.4128L156.29 152.117L116.616 155.014L112.696 101.337C112.346 96.5496 110.754 92.8758 107.92 90.3154C105.197 87.6266 101.682 86.4395 97.373 86.7542C92.9448 87.0776 89.579 88.7672 87.2754 91.8231C84.9631 94.7593 83.9818 98.6211 84.3314 103.408L88.2514 157.085L48.3976 159.996L41.0033 58.7455L80.8572 55.835L81.9847 71.2739C84.7468 66.2594 88.5917 62.0682 93.5195 58.7003C98.567 55.3237 104.681 53.3732 111.862 52.8488Z" fill="white"/>
<path d="M312.09 53.2026L303.385 166.148L267.97 163.418L271.363 119.389L237.703 116.794L234.309 160.824L198.894 158.094L207.599 45.1493L243.014 47.8788L239.879 88.5582L273.539 91.1525L276.675 50.4731L312.09 53.2026Z" fill="white"/>
<path d="M459.876 47.5144L462.237 75.5753L432.263 78.0968L439.398 162.917L404.003 165.895L396.868 81.0744L367.213 83.569L364.852 55.5082L459.876 47.5144Z" fill="white"/>
</g>
<defs>
<clipPath id="clip0">
<rect width="506" height="216" fill="white"/>
</clipPath>
</defs>
</svg>
